# xmcd
# 
# Track frame offsets:
#     150
#     19650
#     38476
#     56101
#     77101
#     96602
#     115427
#     144471
# 
# Disc length: 4440
# 
# Revision: 2
# Processed by: cddbd v1.5.2PL0 Copyright (c) Steve Scherf et al.
# Submitted via: fre:ac v1.0.31
# 
DISCID=6a115608
DTITLE=da pump - Like This
DYEAR=2005
DGENRE=J-Pop
TTITLE0=Like This
TTITLE1=Still in my heart
TTITLE2=Bambism of Asia
TTITLE3=Like This -Full Orchestra Mix-
TTITLE4=Like This -Back Track-
TTITLE5=Still in my heart -Back Track-
TTITLE6=Bambism of Asia -Back Track-
TTITLE7=CCCD  ばーか　ええかげんにせい！
EXTD=YEAR: 2005
EXTT0=
EXTT1=
EXTT2=
EXTT3=
EXTT4=
EXTT5=
EXTT6=
EXTT7=
PLAYORDER=
